<?xml version="1.0" encoding="UTF-8"?>
<svg version="1.1" xmlns="http://www.w3.org/2000/svg" width="522" height="478">
<path d="M0 0 C172.26 0 344.52 0 522 0 C522 157.74 522 315.48 522 478 C349.74 478 177.48 478 0 478 C0 320.26 0 162.52 0 0 Z " fill="#FCFCFC" transform="translate(0,0)"/>
<path d="M0 0 C172.26 0 344.52 0 522 0 C522 157.74 522 315.48 522 478 C349.74 478 177.48 478 0 478 C0 320.26 0 162.52 0 0 Z M218.46777344 39.8996582 C212.84676669 42.35819687 207.68741747 43.98724352 201.55859375 44.69140625 C184.69682422 46.72511586 169.04905794 57.9342609 158.51342773 70.81787109 C157.08526299 72.69303771 155.69322302 74.58965849 154.3125 76.5 C150.28449816 81.97833784 146.16316342 87.34789967 141.875 92.625 C138.01402956 97.38869734 134.33573102 102.2313562 130.8125 107.25 C127.16943453 112.43585832 123.36144411 117.40961934 119.28125 122.265625 C117.65640214 124.21321661 116.08220685 126.16774795 114.53125 128.171875 C110.28475041 133.58651086 106.57806376 138.04628489 100.10546875 140.7421875 C94.52638327 144.07514766 91.67930525 150.0335569 88.9375 155.6875 C88.44926758 156.65333008 88.44926758 156.65333008 87.95117188 157.63867188 C82.86323773 167.94551669 79.91006738 178.62091537 77.4375 189.8125 C77.28625671 190.48853271 77.13501343 191.16456543 76.97918701 191.86108398 C71.8863015 214.72424512 69.78518189 237.41787958 69.8125 260.8125 C69.81243958 261.61415588 69.81237915 262.41581177 69.81231689 263.24176025 C69.82759513 277.573096 70.49644589 291.7394305 72 306 C72.06944824 306.7002832 72.13889648 307.40056641 72.21044922 308.12207031 C73.10705266 316.93296723 74.80070453 325.61524397 76.4375 334.3125 C76.64286377 335.41078125 76.84822754 336.5090625 77.05981445 337.640625 C79.89209526 352.27315205 83.98697973 365.36030245 95 376 C95.99 376.66 96.98 377.32 98 378 C101.8574643 384.95880091 101.44207671 393.03792762 101.5 400.75 C101.63692423 418.74575633 104.74591363 432.46275327 116.71875 446.1640625 C118.87715678 448.24427613 118.87715678 448.24427613 121.78125 448.2734375 C122.5134375 448.18320312 123.245625 448.09296875 124 448 C125.40141877 445.82930487 125.40141877 445.82930487 126 443 C124.38520201 440.12848697 124.38520201 440.12848697 121.875 437.375 C113.24093494 426.78508852 111.81300556 415.86425238 111.9375 402.5625 C111.94201172 401.64017578 111.94652344 400.71785156 111.95117188 399.76757812 C111.96286062 397.51164952 111.97924545 395.25586033 112 393 C112.40089844 394.07636719 112.80179688 395.15273438 113.21484375 396.26171875 C119.73933513 413.2374968 127.83283037 426.76059717 144.95654297 434.51049805 C163.6308189 442.55975491 183.80358973 446.43553683 204 448 C205.15338867 448.09023438 206.30677734 448.18046875 207.49511719 448.2734375 C244.96435034 451.07063624 282.53963199 450.79791809 320 448 C320.71327454 447.94672546 321.42654907 447.89345093 322.16143799 447.83856201 C353.17701258 445.48496461 383.26411286 441.49081297 412 429 C412.96292969 428.58234375 413.92585938 428.1646875 414.91796875 427.734375 C416.95230646 426.83863561 418.97764621 425.92247717 421 425 C420.76216797 425.84691406 420.76216797 425.84691406 420.51953125 426.7109375 C418.70352505 434.71228815 420.10038966 441.85702442 424 449 C425.56758825 451.24506329 426.73531452 452.35810303 429 454 C432.06731977 453.91236229 432.81352381 453.18647619 435 451 C434.67470743 446.98805832 433.07597637 444.3734616 431 441 C428.38929914 433.87990674 430.52253688 426.81270806 433 420 C434.45965341 416.97582361 436.13336661 414.09405713 437.8125 411.1875 C441.56062676 404.37762902 444.38463925 397.67025523 446.5 390.1875 C446.73050049 389.37756592 446.96100098 388.56763184 447.19848633 387.7331543 C450.81870308 374.04262594 451.29798477 360.55540536 451.1875 346.5 C451.18063467 344.69913869 451.17412728 342.89827598 451.16796875 341.09741211 C451.12027991 331.42858101 450.90909813 321.79232671 450.36279297 312.13769531 C449.9531424 304.41933445 449.85459581 296.70245402 449.82275391 288.974823 C449.81602477 287.51478053 449.80588447 286.05474897 449.79199219 284.59475708 C449.77384784 282.53701538 449.76983052 280.47968833 449.76953125 278.421875 C449.76542236 277.23174805 449.76131348 276.04162109 449.75708008 274.81542969 C449.95143939 271.76271874 450.34526487 269.16789462 450.99560547 266.20605469 C452.12980082 260.86197537 452.30530476 255.7307263 452.30078125 250.28125 C452.30628998 249.27729187 452.31179871 248.27333374 452.31747437 247.23895264 C452.32912622 243.9924907 452.3228613 240.74646214 452.3125 237.5 C452.31134186 236.38862671 452.31018372 235.27725342 452.30899048 234.13220215 C452.26944521 214.92183785 451.24723136 196.0720385 449 177 C448.78050758 174.92585968 448.56170813 172.85164586 448.34375 170.77734375 C447.30226004 161.52149627 445.61674332 152.55769033 443.1875 143.5625 C442.85141724 142.27412231 442.85141724 142.27412231 442.50854492 140.9597168 C440.86042195 135.30346673 438.50861692 130.9027508 434 127 C426.9330695 124.6443565 421.21134394 125.89595375 414.65234375 129.125 C413.83443359 129.558125 413.83443359 129.558125 413 130 C412.98582031 129.41734375 412.97164063 128.8346875 412.95703125 128.234375 C411.73958513 107.3074634 395.23974832 88.78802153 380.21875 75.4140625 C378.91293624 74.2741513 377.60419021 73.13759289 376.29296875 72.00390625 C366.5487841 63.48811966 356.76170101 54.74044616 348.4375 44.8125 C337.90991934 32.61231307 323.76368009 26.76079498 308 25 C276.88586937 22.87746488 246.94260049 27.20867828 218.46777344 39.8996582 Z " fill="#F6F6F6" transform="translate(0,0)"/>
<path d="M0 0 C5.6432803 4.92493204 10.69928782 10.35039573 15.63671875 15.9765625 C21.59889891 22.6227599 28.00582994 28.84290354 34.76953125 34.66796875 C51.55254917 49.13187874 67.20613854 64.98334335 71.91796875 87.51953125 C72.01171875 90.390625 72.01171875 90.390625 71.91796875 92.51953125 C72.73587891 92.08640625 72.73587891 92.08640625 73.5703125 91.64453125 C79.10611536 88.91921292 83.74111507 87.53219791 89.91796875 88.51953125 C94.55242633 90.47630223 97.70701993 93.74953541 99.73754883 98.39428711 C100.54990596 100.70962508 101.25210911 103.03276786 101.91796875 105.39453125 C102.17288086 106.29655273 102.42779297 107.19857422 102.69042969 108.12792969 C106.18408316 121.34918324 107.47379454 134.95693022 108.91796875 148.51953125 C109.0365625 149.51742676 109.15515625 150.51532227 109.27734375 151.54345703 C111.16996181 167.47017601 111.12395894 183.44017597 111.16796875 199.45703125 C111.17332642 200.56873688 111.17868408 201.6804425 111.1842041 202.82583618 C111.19597252 206.04547982 111.19242394 209.26472837 111.18359375 212.484375 C111.1875415 213.44711334 111.19148926 214.40985168 111.19555664 215.40176392 C111.15861766 220.88282504 110.54996471 225.87218579 109.36941528 231.22059631 C108.73000723 234.47670176 108.67606314 237.62875196 108.6875 240.94140625 C108.68764351 241.92818108 108.68764351 241.92818108 108.68778992 242.93489075 C108.69147007 245.0466326 108.71037579 247.15788719 108.73046875 249.26953125 C108.73734566 250.76163573 108.74385173 252.25374195 108.75 253.74584961 C108.79608151 261.53505415 108.9788695 269.30426083 109.41796875 277.08203125 C109.94545635 286.73610353 110.09471637 296.38841942 110.15014648 306.05514526 C110.16178711 307.78722578 110.17864689 309.51928125 110.20141602 311.25125122 C110.49380331 334.7800831 106.47996246 355.96619613 95.04467773 376.66601562 C90.82458489 384.34518607 86.94897112 392.72901379 89.52734375 401.62109375 C90.70861694 404.93589096 91.95177631 407.57024259 93.91796875 410.51953125 C93.5590884 413.48029416 93.07138854 414.36611146 90.91796875 416.51953125 C88.60546875 416.64453125 88.60546875 416.64453125 85.91796875 415.51953125 C79.93689108 408.32514925 78.26782048 400.68208599 78.91796875 391.51953125 C79.23575963 390.18240828 79.56677878 388.84827295 79.91796875 387.51953125 C79.38131592 387.76074707 78.84466309 388.00196289 78.29174805 388.25048828 C48.89831565 401.3759556 20.91958864 406.65553907 -11.08203125 409.51953125 C-12.19610352 409.62007813 -13.31017578 409.720625 -14.45800781 409.82421875 C-21.66122975 410.46354519 -28.86764907 411.02250182 -36.08203125 411.51953125 C-36.90928711 411.57882812 -37.73654297 411.638125 -38.58886719 411.69921875 C-88.2030029 415.1027201 -153.6663869 418.77673622 -199.08203125 395.51953125 C-199.99984375 395.05933594 -200.91765625 394.59914063 -201.86328125 394.125 C-216.91847666 385.8945242 -223.32804903 370.82267544 -229.08203125 355.51953125 C-229.62697115 375.58139284 -228.13473306 389.42598022 -215.08203125 405.51953125 C-215.74203125 407.16953125 -216.40203125 408.81953125 -217.08203125 410.51953125 C-219.14453125 410.95703125 -219.14453125 410.95703125 -222.08203125 410.51953125 C-231.73388443 403.58366466 -236.46195161 392.05104308 -238.60498047 380.765625 C-239.0818584 377.5207074 -239.22376073 374.43794528 -239.2578125 371.16015625 C-239.28166016 369.96132813 -239.30550781 368.7625 -239.33007812 367.52734375 C-239.37277596 365.03793044 -239.40417258 362.54829562 -239.42382812 360.05859375 C-239.62446396 351.3426 -240.508274 343.56351972 -246.45703125 336.83203125 C-247.75640625 335.68734375 -247.75640625 335.68734375 -249.08203125 334.51953125 C-256.9904144 326.48561821 -260.58294458 317.32899224 -262.70703125 306.39453125 C-262.91303955 305.38680664 -263.11904785 304.37908203 -263.33129883 303.34082031 C-263.74042218 301.32524126 -264.14303196 299.30832724 -264.53857422 297.29003906 C-265.00703938 294.90183483 -265.4945316 292.51895885 -265.9921875 290.13671875 C-270.34695714 268.4722869 -271.2952618 246.31632725 -271.26953125 224.26953125 C-271.26959167 223.46448151 -271.2696521 222.65943176 -271.26971436 221.82998657 C-271.25712626 210.0046419 -270.87183478 198.34621438 -269.34228516 186.60595703 C-269.10136472 184.67452544 -268.92291687 182.73557828 -268.75 180.796875 C-267.82374103 171.2798185 -265.78254194 162.0245201 -263.70703125 152.70703125 C-263.56004791 152.03899475 -263.41306458 151.37095825 -263.2616272 150.68267822 C-260.73343951 139.26875493 -257.42118632 128.64540435 -252.14453125 118.20703125 C-251.82291016 117.54380859 -251.50128906 116.88058594 -251.16992188 116.19726562 C-248.06936732 110.00227202 -244.72808129 104.97780096 -238.33203125 101.83203125 C-232.04802155 98.2531204 -228.41627381 93.18910843 -224.08203125 87.51953125 C-222.4842104 85.6391206 -220.8798514 83.76424906 -219.26953125 81.89453125 C-215.32821595 77.18684908 -211.76374235 72.31564854 -208.26953125 67.26953125 C-203.23295859 59.99674313 -197.82689284 53.13506268 -192.19140625 46.3203125 C-189.70978304 43.31314208 -187.32183345 40.2495772 -184.97436523 37.13696289 C-175.18691826 24.16308067 -162.9585141 13.35027603 -147.08203125 8.51953125 C-146.39882812 8.30941406 -145.715625 8.09929688 -145.01171875 7.8828125 C-141.65556151 6.95493373 -138.4839575 6.46894701 -135.01171875 6.265625 C-129.22318513 5.64397014 -124.47765877 3.24428058 -119.26953125 0.76953125 C-108.71409768 -4.00461891 -98.46619562 -7.37091518 -87.08203125 -9.48046875 C-85.79304932 -9.72168457 -85.79304932 -9.72168457 -84.47802734 -9.96777344 C-58.01770488 -14.66946107 -22.29203203 -17.94098903 0 0 Z M-111.08203125 7.51953125 C-99.71449725 8.98530381 -88.32954573 9.910506 -76.89453125 10.64453125 C-75.87502884 10.71096832 -75.87502884 10.71096832 -74.83493042 10.77874756 C-63.37070401 12.43140706 -63.37070401 12.43140706 -52.7890625 10.0234375 C-52.16386719 9.38277344 -51.53867187 8.74210937 -50.89453125 8.08203125 C-48.33044676 5.49705809 -46.72559699 4.09313029 -43.08203125 3.51953125 C-43.39140625 4.28265625 -43.70078125 5.04578125 -44.01953125 5.83203125 C-44.76096718 7.70742802 -45.44431342 9.60637777 -46.08203125 11.51953125 C-45.38078125 11.23335937 -44.67953125 10.9471875 -43.95703125 10.65234375 C-34.53363968 6.93932262 -25.32179239 3.97521945 -15.08203125 5.51953125 C-10.87608611 7.52174315 -7.81900618 10.4534461 -4.51953125 13.70703125 C-3.59011719 14.60808594 -2.66070312 15.50914063 -1.703125 16.4375 C3.37001569 21.95603812 5.80921013 29.37853393 8.48046875 36.26953125 C8.94151001 37.45131958 8.94151001 37.45131958 9.41186523 38.65698242 C11.0731975 43.00881049 12.46153042 47.27713429 13.48046875 51.83203125 C14.98479485 58.51792501 17.83504044 64.42746812 20.91796875 70.51953125 C21.25828125 71.19886719 21.59859375 71.87820312 21.94921875 72.578125 C26.16780813 80.45161294 32.50439844 88.30902913 38.91796875 94.51953125 C39.57796875 94.51953125 40.23796875 94.51953125 40.91796875 94.51953125 C40.91796875 95.50953125 40.91796875 96.49953125 40.91796875 97.51953125 C24.4933435 96.27912986 24.4933435 96.27912986 17.91796875 89.51953125 C17.21671875 88.85308594 16.51546875 88.18664062 15.79296875 87.5 C9.14311463 80.72315214 4.73292493 72.81153466 0.10253906 64.61181641 C-6.33364757 52.16511249 -6.33364757 52.16511249 -16.08203125 42.51953125 C-19.7927663 42.01756831 -19.7927663 42.01756831 -23.08203125 42.51953125 C-23.74203125 42.18953125 -24.40203125 41.85953125 -25.08203125 41.51953125 C-32.57258814 40.85073153 -39.22713806 42.33281955 -45.1328125 47.21484375 C-49.66736296 52.01156308 -52.0305625 57.30141479 -54.08203125 63.51953125 C-55.07203125 63.51953125 -56.06203125 63.51953125 -57.08203125 63.51953125 C-58.08203125 56.76953125 -58.08203125 56.76953125 -58.08203125 54.51953125 C-61.16944809 55.60920778 -63.41189238 56.76005499 -66.08203125 58.70703125 C-69.08203125 60.51953125 -69.08203125 60.51953125 -71.95703125 60.26953125 C-72.65828125 60.02203125 -73.35953125 59.77453125 -74.08203125 59.51953125 C-73.89640625 58.55015625 -73.71078125 57.58078125 -73.51953125 56.58203125 C-73.30296875 55.06609375 -73.30296875 55.06609375 -73.08203125 53.51953125 C-73.41203125 53.18953125 -73.74203125 52.85953125 -74.08203125 52.51953125 C-74.12266957 50.8533601 -74.12475225 49.1856503 -74.08203125 47.51953125 C-73.50453125 47.31328125 -72.92703125 47.10703125 -72.33203125 46.89453125 C-68.14120198 44.33346892 -66.11895963 40.25066463 -64.88671875 35.609375 C-64.56462722 34.2280475 -64.25484258 32.8437962 -63.95703125 31.45703125 C-62.95334886 26.99022988 -61.84463388 22.75608236 -60.08203125 18.51953125 C-91.46862139 16.06952494 -91.46862139 16.06952494 -122.92712402 15.09765625 C-124.42889498 15.08736409 -125.93063739 15.07044021 -127.43225098 15.04638672 C-144.51681014 14.80335489 -158.23112258 20.78942948 -170.64453125 32.51953125 C-175.78130734 37.97913615 -180.18777019 44.05352835 -184.6796875 50.04296875 C-187.93093969 54.35991435 -191.32934039 58.54012551 -194.76953125 62.70703125 C-199.26724989 68.17237589 -203.48915606 73.75622658 -207.5378418 79.56079102 C-210.88023225 84.32609073 -214.4954668 88.78031803 -218.26953125 93.21484375 C-219.88278721 95.26618214 -221.03065716 97.14298773 -222.08203125 99.51953125 C-220.98890625 99.99390625 -219.89578125 100.46828125 -218.76953125 100.95703125 C-218.15464844 101.22386719 -217.53976563 101.49070312 -216.90625 101.765625 C-215.32492104 102.41915067 -213.70527719 102.97844927 -212.08203125 103.51953125 C-210.95703125 105.45703125 -210.95703125 105.45703125 -210.08203125 107.51953125 C-209.75203125 108.17953125 -209.42203125 108.83953125 -209.08203125 109.51953125 C-208.2667981 116.08148987 -209.38851819 120.09468394 -213.08203125 125.51953125 C-214.73203125 125.18953125 -216.38203125 124.85953125 -218.08203125 124.51953125 C-217.93765625 123.67390625 -217.79328125 122.82828125 -217.64453125 121.95703125 C-217.36609375 120.25546875 -217.36609375 120.25546875 -217.08203125 118.51953125 C-216.81390625 117.32328125 -216.54578125 116.12703125 -216.26953125 114.89453125 C-215.71891208 111.51844785 -215.71891208 111.51844785 -217.7109375 109.34765625 C-221.40871032 106.49665513 -224.51607379 106.84016606 -229.046875 107.02734375 C-234.0136738 107.83277058 -236.81323662 109.74838939 -240.08203125 113.51953125 C-248.39132908 125.14907151 -252.48556173 138.60296797 -255.39453125 152.45703125 C-255.78995117 154.19629883 -255.78995117 154.19629883 -256.19335938 155.97070312 C-258.86166088 168.43894833 -258.58782017 180.04149572 -256.20703125 192.51953125 C-255.94599609 193.99486328 -255.94599609 193.99486328 -255.6796875 195.5 C-254.71394859 200.89492227 -254.71394859 200.89492227 -253.1027832 206.12036133 C-251.63050286 211.02314996 -251.20975745 215.95088434 -250.6796875 221.03125 C-250.55645615 222.1540889 -250.43322479 223.2769278 -250.30625916 224.43379211 C-249.91277191 228.02422528 -249.52788175 231.61550269 -249.14453125 235.20703125 C-247.48041921 250.71290228 -245.74957894 266.15064977 -243.08203125 281.51953125 C-242.95601532 282.24826447 -242.82999939 282.97699768 -242.70016479 283.72781372 C-242.06953657 287.36027838 -241.43053314 290.99123397 -240.7878418 294.62158203 C-240.66226898 295.33090881 -240.53669617 296.0402356 -240.40731812 296.77105713 C-240.14327878 298.25946017 -239.87828766 299.74769461 -239.61245728 301.23577881 C-238.01502193 310.22169444 -236.77788359 319.0208509 -236.26953125 328.14453125 C-235.89190844 333.93593516 -235.00609604 337.61637056 -230.76953125 341.83203125 C-230.01027344 342.40566406 -229.25101563 342.97929687 -228.46875 343.5703125 C-222.83205227 348.1737694 -220.23230758 354.08485264 -217.76953125 360.76953125 C-212.45591545 374.31579922 -205.22238082 383.14070236 -192.14453125 389.58203125 C-179.05933151 395.27898896 -165.92561711 398.0669806 -151.89453125 400.26953125 C-151.21788422 400.37653351 -150.54123718 400.48353577 -149.84408569 400.59378052 C-147.84774304 400.90549838 -145.85013419 401.20684067 -143.8515625 401.50390625 C-142.69245361 401.67631836 -141.53334473 401.84873047 -140.33911133 402.02636719 C-128.05639665 403.56428555 -115.7998699 403.66920999 -103.4453125 403.65234375 C-101.67237841 403.6530199 -99.8994444 403.6539925 -98.12651062 403.65524292 C-94.42946481 403.65670719 -90.73244334 403.65460789 -87.03540039 403.64990234 C-82.3541051 403.64422694 -77.67286744 403.64747836 -72.99157429 403.65347481 C-69.33387336 403.65713306 -65.6761855 403.65591767 -62.01848412 403.65334702 C-60.29534078 403.6526911 -58.57219617 403.653458 -56.84905434 403.65582657 C-40.52087054 403.67334352 -24.27811138 403.12966125 -8.0625 401.109375 C-4.36060862 400.65999494 -0.65588081 400.26932289 3.0546875 399.8984375 C17.29773809 398.43682137 31.09098327 396.27441192 44.91796875 392.51953125 C45.71138672 392.30458008 46.50480469 392.08962891 47.32226562 391.86816406 C62.18870382 387.69982913 82.15736232 380.49575832 90.609375 366.7734375 C93.88757754 360.57250016 96.14807682 354.28613028 97.91796875 347.51953125 C98.25054687 346.51148438 98.583125 345.5034375 98.92578125 344.46484375 C100.39350791 339.31607518 100.65678997 334.02582037 101.04296875 328.70703125 C101.12716064 327.57644287 101.21135254 326.44585449 101.2980957 325.28100586 C101.85947938 317.04567223 102.09947608 308.83573413 102.10546875 300.58203125 C102.10667725 299.01328247 102.10667725 299.01328247 102.10791016 297.4128418 C102.07401397 292.71445372 101.88581844 288.10901524 101.41186523 283.43408203 C100.83417348 277.29133505 100.81805667 271.20432489 100.84765625 265.0390625 C100.83906211 262.63215426 100.82858252 260.22525216 100.81640625 257.81835938 C100.79986406 254.09563661 100.79267716 250.37429767 100.81835938 246.65161133 C100.92890035 227.85336492 98.88407954 210.82797703 91.17138672 193.50708008 C89.91796875 190.51953125 89.91796875 190.51953125 90.23046875 188.08203125 C90.57078125 187.30859375 90.57078125 187.30859375 90.91796875 186.51953125 C93.2109375 186.546875 93.2109375 186.546875 95.91796875 187.51953125 C97.29375034 190.10098695 98.28697322 192.35112204 99.23046875 195.08203125 C99.49408203 195.79294922 99.75769531 196.50386719 100.02929688 197.23632812 C100.67693124 198.9908285 101.2998588 200.75441314 101.91796875 202.51953125 C102.24796875 202.51953125 102.57796875 202.51953125 102.91796875 202.51953125 C103.77122132 169.98216666 100.20844631 138.39616766 93.91796875 106.51953125 C93.25796875 106.51953125 92.59796875 106.51953125 91.91796875 106.51953125 C91.79421875 105.59140625 91.67046875 104.66328125 91.54296875 103.70703125 C91.10263793 100.3802789 91.10263793 100.3802789 88.91796875 97.51953125 C82.63826958 96.7744822 79.007647 97.9035068 73.91796875 101.51953125 C72.96921875 102.17953125 72.02046875 102.83953125 71.04296875 103.51953125 C67.8496102 106.52504518 67.81269888 109.53745444 67.671875 113.77734375 C67.63900391 114.56753906 67.60613281 115.35773438 67.57226562 116.171875 C67.51078325 117.82797473 67.45352985 119.48423657 67.40039062 121.140625 C67.36623047 121.92824219 67.33207031 122.71585937 67.296875 123.52734375 C67.27181885 124.2455127 67.2467627 124.96368164 67.22094727 125.70361328 C66.91796875 127.51953125 66.91796875 127.51953125 64.91796875 129.51953125 C62.79296875 129.14453125 62.79296875 129.14453125 60.91796875 128.51953125 C60.86341172 125.54011127 60.82403024 122.56171594 60.79296875 119.58203125 C60.77621094 118.75123047 60.75945312 117.92042969 60.7421875 117.06445312 C60.70279509 112.00252813 61.24222979 107.54647101 62.45507812 102.63842773 C65.0191912 90.90111899 62.73085702 80.70790461 56.48046875 70.83203125 C47.95863087 58.42535847 47.95863087 58.42535847 36.91796875 48.51953125 C39.32061602 62.38744269 43.3793153 74.33157786 52.57836914 85.17016602 C55.15134697 88.23957021 56.52707798 90.49999405 56.91796875 94.51953125 C54.65625 95.2421875 54.65625 95.2421875 51.91796875 95.51953125 C39.06799278 86.46555616 32.54887248 66.36647417 29.4609375 51.8359375 C29.00185242 49.03188546 28.9460578 46.70494873 29.04296875 43.89453125 C28.46971342 37.32039035 21.33335149 32.97724645 16.62060547 28.99072266 C11.08267982 24.20558645 5.99953885 18.86653353 1.29296875 13.26953125 C-7.05127204 3.64751809 -19.39524321 -2.50748029 -32.15014648 -3.66876221 C-34.30699397 -3.74205745 -36.45523199 -3.75790467 -38.61328125 -3.74609375 C-39.4074646 -3.7480072 -40.20164795 -3.74992065 -41.01989746 -3.75189209 C-42.69393228 -3.75324523 -44.3679779 -3.74961008 -46.04199219 -3.74121094 C-48.5477792 -3.73061361 -51.05283038 -3.74107643 -53.55859375 -3.75390625 C-84.39332009 -4.1164782 -84.39332009 -4.1164782 -111.08203125 7.51953125 Z " fill="#0A0A0A" transform="translate(341.08203125,37.48046875)"/>
<path d="M0 0 C2.5 0.0625 2.5 0.0625 5 1 C12.46392653 14.80020948 11.51460799 42.73113672 7.375 57.375 C1.7756628 72.1244736 -9.44623847 86.10980953 -22.375 95.125 C-25.87077145 97.62002119 -27.17551792 99.67146908 -28 104 C-27.40832031 104.09796875 -26.81664062 104.1959375 -26.20703125 104.296875 C-21.2163626 105.24127559 -17.55385725 106.11296863 -14 110 C-13.0625 112.5625 -13.0625 112.5625 -13 115 C-13.66 115.99 -14.32 116.98 -15 118 C-18.79918838 117.48659616 -20.43134786 116.7920132 -23 114 C-27.81713532 111.05412109 -32.89650992 111.67046489 -38.375 111.6875 C-39.40367187 111.67138672 -40.43234375 111.65527344 -41.4921875 111.63867188 C-47.03941682 111.63509763 -51.26716695 111.74716658 -56 115 C-56.33 115.66 -56.66 116.32 -57 117 C-56.34 117.185625 -55.68 117.37125 -55 117.5625 C-49.68510095 120.10922246 -44.03467937 124.2781098 -42 130 C-41.8046875 133.015625 -41.8046875 133.015625 -41.875 136.25 C-41.89304687 137.32765625 -41.91109375 138.4053125 -41.9296875 139.515625 C-41.95289063 140.33546875 -41.97609375 141.1553125 -42 142 C-44.375 142.625 -44.375 142.625 -47 143 C-49.31491729 140.68508271 -49.33212444 139.8284171 -49.8125 136.6875 C-50.80019263 132.04608727 -52.10652993 129.92010256 -56 127 C-59.27219947 125.1910199 -62.59902266 123.55190228 -66 122 C-65.95359375 122.76183594 -65.9071875 123.52367187 -65.859375 124.30859375 C-65.51223445 134.23929305 -67.43632556 140.21061436 -73.8125 147.8125 C-78.40454404 152.65871622 -82.47405642 156.06287808 -89.375 156.625 C-96.58453982 156.26942746 -101.70910378 151.48702851 -106.4375 146.4375 C-110.81397108 141.93053781 -115.97902459 138.1338201 -122.46484375 137.91796875 C-124.34273173 138.10823934 -126.21662424 138.34015458 -128.0859375 138.6015625 C-133.64353846 139.16730631 -139.16792762 139.09387827 -144.75 139.0625 C-145.84715332 139.05822998 -146.94430664 139.05395996 -148.07470703 139.04956055 C-150.71652449 139.03727399 -153.3582382 139.02082903 -156 139 C-155.97035156 140.0828125 -155.94070313 141.165625 -155.91015625 142.28125 C-156.01315519 146.54451049 -157.27372366 149.133141 -159 153 C-160.52412132 158.58844484 -159.70662427 161.51037983 -157.0078125 166.3984375 C-156.09747257 167.97648524 -156.09747257 167.97648524 -155 169 C-154.8125 171.4375 -154.8125 171.4375 -155 174 C-155.66 174.66 -156.32 175.32 -157 176 C-158.32 176 -159.64 176 -161 176 C-162.66796875 173.98828125 -162.66796875 173.98828125 -164.1875 171.3125 C-164.95126953 170.00732422 -164.95126953 170.00732422 -165.73046875 168.67578125 C-166.96335099 166.07724483 -167.57638417 163.83261189 -168 161 C-173.24323615 161.67154749 -178.18697974 162.33319105 -182.1796875 166.00390625 C-189.3012182 175.86326987 -193.15958399 186.7818592 -193.25 198.875 C-193.270625 199.55691406 -193.29125 200.23882812 -193.3125 200.94140625 C-193.35758003 206.85816048 -191.76156833 211.00533383 -188.75 216.125 C-187.72601842 218.68495395 -188.27667123 220.39601642 -189 223 C-190.65 223.33 -192.3 223.66 -194 224 C-201.99406154 212.11949747 -203.74626887 201.367785 -201.37890625 187.3125 C-199.03219255 178.13424198 -194.70108414 170.14702445 -190 162 C-194.60387391 160.89768211 -194.60387391 160.89768211 -199.01171875 161.99609375 C-199.56472656 162.47175781 -200.11773437 162.94742188 -200.6875 163.4375 C-205.79760153 167.0405208 -210.97095554 166.58211464 -217 166 C-218.67196455 165.69434754 -220.34108698 165.36999523 -222 165 C-222.78375 165.886875 -223.5675 166.77375 -224.375 167.6875 C-225.03628906 168.43580078 -225.03628906 168.43580078 -225.7109375 169.19921875 C-228.75069042 173.44566147 -229.20437973 177.04607242 -229 182.1875 C-228.875 185.35546875 -228.875 185.35546875 -229 188 C-229.66 188.66 -230.32 189.32 -231 190 C-233.5 189.8125 -233.5 189.8125 -236 189 C-239.14512248 184.28231628 -238.66463956 179.51852239 -238 174 C-236.07958042 168.44532027 -233.09877102 163.24010795 -229 159 C-228.34 159 -227.68 159 -227 159 C-227.42152344 158.46632813 -227.84304687 157.93265625 -228.27734375 157.3828125 C-232.62487092 151.47017555 -233.79366534 147.32488048 -234 140 C-237.3 140 -240.6 140 -244 140 C-244.50789063 140.97839844 -245.01578125 141.95679688 -245.5390625 142.96484375 C-248.95656245 149.49219362 -252.38139084 155.83085863 -256.6328125 161.86328125 C-258.68569281 165.07163991 -260.15230638 168.5263536 -261.62890625 172.03125 C-263 174 -263 174 -265.58984375 174.84375 C-266.38519531 174.8953125 -267.18054688 174.946875 -268 175 C-269 174 -269 174 -269.3125 171 C-269.28242275 166.17761425 -267.14502678 162.22302146 -265 158 C-265.7425 157.79375 -266.485 157.5875 -267.25 157.375 C-272.06565017 154.96717491 -273.89008843 150.66217595 -275.75 145.8125 C-277.40544261 140.56877368 -277.27480562 135.44522245 -277 130 C-290.65983928 130.45926444 -290.65983928 130.45926444 -303 136 C-305.6875 135.625 -305.6875 135.625 -308 135 C-308.495 133.02 -308.495 133.02 -309 131 C-307.96566873 130.05441313 -306.92205854 129.11897416 -305.875 128.1875 C-305.29492188 127.66542969 -304.71484375 127.14335937 -304.1171875 126.60546875 C-301.56930335 124.67340162 -298.88614734 123.36131312 -296 122 C-296.71285156 121.50371094 -297.42570312 121.00742187 -298.16015625 120.49609375 C-313.86173968 109.35916984 -319.88282517 99.33931797 -323.69140625 80.59765625 C-325.19921479 71.0552316 -325.23589064 61.44970951 -325.3125 51.8125 C-325.32212769 51.12962921 -325.33175537 50.44675842 -325.3416748 49.74319458 C-325.48293215 38.03341708 -324.50655089 26.72072276 -318.875 16.25 C-318.35679687 15.26515625 -317.83859375 14.2803125 -317.3046875 13.265625 C-316 11 -316 11 -315 10 C-312.5 9.875 -312.5 9.875 -310 10 C-309 11 -309 11 -308.6875 13.0625 C-309.04566082 16.42921175 -310.37079231 18.71591795 -311.91918945 21.68359375 C-316.75450787 32.04670673 -316.56235751 43.26029388 -316.5 54.4375 C-316.49823761 55.27671997 -316.49647522 56.11593994 -316.49465942 56.98059082 C-316.4169142 73.57177847 -316.29918372 92.32891871 -304 105 C-303.45472656 105.56332031 -302.90945313 106.12664062 -302.34765625 106.70703125 C-294.24757186 114.23534497 -284.29344355 118.39018452 -274 122 C-273.31341309 122.24782227 -272.62682617 122.49564453 -271.91943359 122.75097656 C-269.68039637 123.5570899 -267.43521587 124.34343874 -265.1875 125.125 C-264.51396484 125.36669922 -263.84042969 125.60839844 -263.14648438 125.85742188 C-248.35728967 130.8695445 -233.79851284 131.4527315 -218.3515625 131.3984375 C-216.28437193 131.40046635 -214.21718206 131.40338447 -212.1499939 131.40713501 C-207.83511484 131.41153014 -203.52042343 131.40522536 -199.20556641 131.39111328 C-193.75502305 131.37412899 -188.30492257 131.38408417 -182.85439491 131.40144539 C-129.61825388 131.54521667 -84.19954484 123.92766752 -38 95.3125 C-37.03964844 94.71937012 -36.07929688 94.12624023 -35.08984375 93.51513672 C-19.77628103 83.71801036 -4.68564118 69.59655473 -0.359375 51.2890625 C0.15245925 46.60466639 0.19061107 41.95938717 0.1875 37.25 C0.18814453 36.23953613 0.18878906 35.22907227 0.18945312 34.18798828 C0.13442864 26.24320276 -0.51299422 18.48614448 -1.5625 10.6171875 C-2.25454545 4.89545455 -2.25454545 4.89545455 -2 2 C-1.34 1.34 -0.68 0.68 0 0 Z " fill="#0C0C0C" transform="translate(420,156)"/>
<path d="M0 0 C1.22783203 0.61875 1.22783203 0.61875 2.48046875 1.25 C12.8330982 6.76304927 17.92119548 15.44427535 23.3125 25.5 C23.73337891 26.28270264 24.15425781 27.06540527 24.58789062 27.87182617 C27.4598076 33.42893928 29.3422186 38.9813718 31 45 C31.556875 46.670625 31.556875 46.670625 32.125 48.375 C33.54203259 52.62609776 34.13703732 56.17952287 34.125 60.6875 C34.12886719 62.14736328 34.12886719 62.14736328 34.1328125 63.63671875 C34 66 34 66 33 67 C27.59905585 66.64352423 23.75483487 65.03183827 19.1875 62.3125 C-1.32001083 50.79358652 -27.25853926 45.91105414 -50.375 51.5 C-56.90348703 53.34895359 -62.7872547 56.10283722 -68.68701172 59.4453125 C-71.62127106 61.06693681 -73.5017817 62.03563505 -76.89453125 61.79296875 C-79 61 -79 61 -80 60 C-80.43553004 54.1547284 -79.23163307 49.35217166 -77.4375 43.8125 C-77.1686499 42.97678467 -76.8997998 42.14106934 -76.62280273 41.2800293 C-73.20214914 31.09082746 -68.12116793 21.28548046 -60 14 C-59.34 14 -58.68 14 -58 14 C-58 13.34 -58 12.68 -58 12 C-42.94264171 -0.78768296 -18.63775995 -11.23179508 0 0 Z " fill="#0A0A0A" transform="translate(349,123)"/>
<path d="M0 0 C10.2110894 8.54081002 14.22755663 23.85170302 15.81640625 36.5625 C15.97596191 39.98031217 16.00144146 43.39136883 16.00390625 46.8125 C16.01615234 47.72257812 16.02839844 48.63265625 16.04101562 49.5703125 C16.04294922 50.43914062 16.04488281 51.30796875 16.046875 52.203125 C16.05098389 52.99235352 16.05509277 53.78158203 16.05932617 54.59472656 C15.81640625 56.5625 15.81640625 56.5625 13.81640625 58.5625 C9.74223905 58.21067209 6.5853254 56.57443381 3.00390625 54.6875 C-12.02781497 46.99642301 -29.11032772 44.66686672 -45.55078125 49.58984375 C-55.23645882 53.16808368 -63.46359661 58.39905927 -70.43359375 66.0625 C-73.18359375 68.5625 -73.18359375 68.5625 -76.05859375 68.4375 C-76.75984375 68.14875 -77.46109375 67.86 -78.18359375 67.5625 C-81.08366579 58.47925549 -75.53298588 45.76314215 -71.52734375 37.58178711 C-63.1941316 21.82470778 -51.27834628 6.94508299 -34.18359375 0.5625 C-23.95051228 -2.11399918 -9.92363393 -4.48085556 0 0 Z " fill="#090909" transform="translate(206.18359375,129.4375)"/>
<path d="M0 0 C4.05684738 2.03383282 6.89797847 4.72166464 10 8 C10.69480469 8.67417969 11.38960938 9.34835938 12.10546875 10.04296875 C16.30365939 14.37108405 19.51331219 19.14213806 22.5625 24.3125 C22.92166504 24.91143066 23.28083008 25.51036133 23.65087891 26.12744141 C26.06858104 30.4184704 26.06858104 30.4184704 25.71484375 33.41796875 C25.47894531 33.94003906 25.24304688 34.46210937 25 35 C24.34 35 23.68 35 23 35 C23.33 35.99 23.66 36.98 24 38 C25.1883771 42.08868204 25.07067914 45.75925152 25 50 C25.33 50.99 25.66 51.98 26 53 C26.06740865 54.56118428 26.08514456 56.1250252 26.0625 57.6875 C26.05347656 58.49574219 26.04445313 59.30398437 26.03515625 60.13671875 C26.02355469 60.75160156 26.01195312 61.36648437 26 62 C23.0625 61.625 23.0625 61.625 20 61 C19.67 60.34 19.34 59.68 19 59 C18.67 60.65 18.34 62.3 18 64 C17.01 64 16.02 64 15 64 C11.83150342 54.58540974 9.22202422 45.27304725 7.52050781 35.47338867 C6.44010765 29.71921659 4.60553784 25.54508452 0.31640625 21.35546875 C-5.75687006 17.31112662 -11.83667688 17.1201167 -19 17 C-19.27199219 17.7115625 -19.54398437 18.423125 -19.82421875 19.15625 C-21.01321145 22.03195328 -22.37585263 24.74042405 -23.8125 27.5 C-26.01629468 31.84340116 -27.88293182 36.17902331 -29.5625 40.75 C-33.32398079 50.72506614 -38.51870879 59.20294432 -48.5625 63.875 C-52 65 -52 65 -55.4375 65 C-60.64889066 66.4628465 -62.30281265 69.93906397 -65.203125 74.3359375 C-67.59567558 77.88315379 -68.91460861 79.63820287 -73 81 C-74.20882096 83.00016466 -74.20882096 83.00016466 -75 85 C-76.32 85 -77.64 85 -79 85 C-79.33 84.34 -79.66 83.68 -80 83 C-81.32 83 -82.64 83 -84 83 C-84 82.01 -84 81.02 -84 80 C-85.32 79.67 -86.64 79.34 -88 79 C-88 78.34 -88 77.68 -88 77 C-88.66 77 -89.32 77 -90 77 C-89.90625 75.28515625 -89.90625 75.28515625 -89 73 C-86.86089388 71.35159542 -84.76375904 69.89101927 -82.5 68.4375 C-75.59699151 63.78012262 -70.943965 58.73330798 -66 52 C-64.89011719 50.78763672 -64.89011719 50.78763672 -63.7578125 49.55078125 C-61.70172781 47.12260372 -61.70172781 47.12260372 -62.15234375 44.140625 C-61.91585799 39.26538013 -58.91491327 37.06780826 -55.5625 33.75 C-54.27270735 32.42518962 -52.98364547 31.0996674 -51.6953125 29.7734375 C-51.06270508 29.13116211 -50.43009766 28.48888672 -49.77832031 27.82714844 C-47.42151059 25.40562675 -45.17819684 22.90432898 -42.9375 20.375 C-31.04109367 7.12275324 -18.67125788 -2.56494048 0 0 Z " fill="#090909" transform="translate(221,54)"/>
<path d="M0 0 C0.02578125 0.72445312 0.0515625 1.44890625 0.078125 2.1953125 C0.49750569 9.34384699 1.50425661 13.83198255 7 18.8125 C11.8188122 21.67366974 17.55877883 21.62814697 23 21 C25.25949407 20.13037959 27.23626702 19.12099185 29.30859375 17.875 C31 17 31 17 34 17 C47 41.83870968 47 41.83870968 47 51 C43.21988405 50.38700822 40.13769388 49.27270475 36.6875 47.625 C13.51419863 36.59653833 -12.40113958 34.49354362 -37 42 C-40.12051724 43.18724049 -43.01031717 44.50515859 -46 46 C-46.66 46 -47.32 46 -48 46 C-46.72528428 33.45998406 -39.83509889 23.58138828 -31 15 C-30.278125 14.26910156 -29.55625 13.53820312 -28.8125 12.78515625 C-21.2075565 5.49255865 -10.80144247 0 0 0 Z " fill="#F8F8F8" transform="translate(327,127)"/>
<path d="M0 0 C-0.66 0.99 -1.32 1.98 -2 3 C-2.70918826 8.1787236 -2.76300593 13.3499886 -0.3125 18.0625 C2.21070062 21.26764674 3.18842487 21.86985465 7 23 C10.4140349 23.27831516 10.4140349 23.27831516 14 23.1875 C15.794375 23.17783203 15.794375 23.17783203 17.625 23.16796875 C20.54002689 23.02289218 23.16718061 22.67064853 26 22 C27.823321 28.15370839 28.2361959 33.59646678 28 40 C27.46375 39.82984375 26.9275 39.6596875 26.375 39.484375 C23.59221715 38.62390925 20.79776001 37.8105026 18 37 C16.80246094 36.64035156 15.60492188 36.28070313 14.37109375 35.91015625 C-3.0210153 30.9256046 -21.42787076 31.36021815 -37.796875 39.85546875 C-40.60408369 41.48405274 -43.31137968 43.18481532 -46 45 C-46.99 45.495 -46.99 45.495 -48 46 C-45.82190662 31.58693764 -34.23642566 16.80029687 -23.3671875 7.65234375 C-16.2054844 2.65333317 -8.70690264 -0.19788415 0 0 Z " fill="#F5F5F5" transform="translate(186,136)"/>
<path d="M0 0 C2.25 0.3125 2.25 0.3125 3.25 1.3125 C3.9375 4 3.9375 4 3.25 7.3125 C-13.03899395 21.59227884 -39.21317874 23.31829389 -59.75 22.3125 C-74.20534063 21.09835696 -88.47772109 17.0952027 -98.75 6.3125 C-98.42 4.6625 -98.09 3.0125 -97.75 1.3125 C-92.80795318 0.70981136 -90.70389304 1.88817103 -86.8515625 4.875 C-71.39013906 15.45084354 -49.19155444 15.42605798 -31.375 12.1875 C-21.07774079 9.94988754 -9.24858167 1.05097519 0 0 Z " fill="#0F0F0F" transform="translate(371.75,203.6875)"/>
<path d="M0 0 C-1.40871311 2.81742623 -3.2745949 3.32345159 -6.0625 4.75 C-14.81113396 9.4573295 -20.47376102 14.28908191 -26.6328125 22.12109375 C-29.02896453 25.03522583 -31.5613658 27.66774559 -34.25 30.3125 C-39.48700043 35.34851992 -39.48700043 35.34851992 -44 41 C-43.91492188 42.38638672 -43.91492188 42.38638672 -43.828125 43.80078125 C-44.06192087 48.15257251 -45.75613559 49.71743243 -48.625 52.9375 C-49.55601042 53.99216911 -50.48700012 55.0468565 -51.41796875 56.1015625 C-52.27003906 57.05804688 -53.12210938 58.01453125 -54 59 C-54.98148741 60.26904184 -55.96115026 61.53950122 -56.9375 62.8125 C-60.71206668 67.20531467 -65.80089652 70.5187952 -71 73 C-71.99 72.67 -72.98 72.34 -74 72 C-76.69433317 73.87197454 -76.69433317 73.87197454 -79 76 C-77.61040933 73.03750742 -75.9966555 70.47378976 -74.05859375 67.83984375 C-73.47948242 67.05174316 -72.90037109 66.26364258 -72.30371094 65.45166016 C-71.68786133 64.6219873 -71.07201172 63.79231445 -70.4375 62.9375 C-69.48858887 61.65431885 -69.48858887 61.65431885 -68.52050781 60.34521484 C-64.52706828 54.97413031 -60.43318374 49.73673462 -56.140625 44.6015625 C-53.68761424 41.62034869 -51.34036415 38.56979926 -49 35.5 C-44.45779412 29.56187959 -39.84931483 23.69267393 -35 18 C-34.45214844 17.35417969 -33.90429688 16.70835938 -33.33984375 16.04296875 C-26.53693618 8.6383298 -10.64155859 -3.71102851 0 0 Z " fill="#F0F0F0" transform="translate(204,54)"/>
<path d="M0 0 C5.81995342 8.72993013 5.65731997 22.77148708 6.64993286 33.06048584 C7.94560736 46.38476319 9.53802146 59.64183266 11.5625 72.875 C11.76020996 74.17872559 11.95791992 75.48245117 12.16162109 76.82568359 C13.36391519 84.52214992 14.78221824 92.14860128 16.36230469 99.77441406 C17.77158743 106.90283811 18.11515022 113.74553623 18 121 C10.12495714 114.24996327 8.50383905 104.16821689 6.4375 94.5 C6.28658905 93.79894135 6.1356781 93.09788269 5.98019409 92.37557983 C-0.53019626 61.72721567 -0.40972921 31.18144369 0 0 Z " fill="#EFEFEF" transform="translate(79,243)"/>
<path d="M0 0 C0.70125 0.268125 1.4025 0.53625 2.125 0.8125 C2.62 3.2875 2.62 3.2875 3.125 5.8125 C-14.05717134 20.47809069 -34.91423036 26.62027387 -57.24853516 25.08105469 C-66.4001139 24.14531044 -74.88087413 21.38057193 -82.875 16.8125 C-82.875 14.8325 -82.875 12.8525 -82.875 10.8125 C-80.35985881 9.86932205 -78.59962276 9.50847349 -76.078125 10.56640625 C-74.81271928 11.25225615 -73.56114747 11.96453728 -72.328125 12.70703125 C-58.95442272 18.73371556 -39.39516345 17.38995444 -25.875 12.8125 C-15.06053136 8.56117084 -15.06053136 8.56117084 -5.5546875 2.04296875 C-2.875 -0.1875 -2.875 -0.1875 0 0 Z " fill="#0E0E0E" transform="translate(210.875,199.1875)"/>
<path d="M0 0 C0.66941227 7.86559422 -2.0434647 13.9171609 -7.0625 19.9375 C-9.74740071 22.95000133 -12.02408676 24.78091744 -16.0625 25.6875 C-21.4211712 24.751859 -23.85162072 21.99392682 -27.66796875 18.26171875 C-29.90162733 15.98805448 -29.90162733 15.98805448 -32.30078125 14.33203125 C-32.86152344 13.89246094 -33.42226563 13.45289063 -34 13 C-34 12.34 -34 11.68 -34 11 C-33.1028125 10.70867187 -32.205625 10.41734375 -31.28125 10.1171875 C-23.50447122 7.56241926 -15.81445294 4.87127035 -8.19335938 1.88037109 C-5.30244948 0.7651594 -3.12913879 0 0 0 Z " fill="#F2F2F2" transform="translate(347,279)"/>
<path d="M0 0 C10.56 0 21.12 0 32 0 C30.8129771 9.49618321 30.8129771 9.49618321 27 13 C20.48813653 15.66308867 13.93370185 15.83003202 7 15 C3.75 12.75 3.75 12.75 2 10 C1.566875 9.360625 1.13375 8.72125 0.6875 8.0625 C0 6 0 6 0 0 Z " fill="#F9F9F9" transform="translate(224,296)"/>
<path d="M0 0 C3.70391042 2.09655307 7.05220141 4.51673384 10.27734375 7.2890625 C9.94734375 8.9390625 9.61734375 10.5890625 9.27734375 12.2890625 C7.27734375 13.1015625 7.27734375 13.1015625 4.27734375 13.2890625 C2.159027 12.22136252 0.27891963 10.97767133 -1.66015625 9.61328125 C-5.88836346 6.89858003 -9.42125585 6.04229265 -14.42578125 6.12890625 C-15.48796875 6.13986328 -16.55015625 6.15082031 -17.64453125 6.16210938 C-18.7428125 6.18337891 -19.84109375 6.20464844 -20.97265625 6.2265625 C-23.16530145 6.26082258 -25.35801556 6.29100226 -27.55078125 6.31640625 C-29.00339355 6.34335571 -29.00339355 6.34335571 -30.48535156 6.37084961 C-32.72265625 6.2890625 -32.72265625 6.2890625 -33.72265625 5.2890625 C-33.76346408 3.28947886 -33.76519981 1.28860996 -33.72265625 -0.7109375 C-24.51804872 -5.44581791 -9.19311205 -4.0374173 0 0 Z " fill="#0F0F0F" transform="translate(338.72265625,180.7109375)"/>
<path d="M0 0 C7.26 0 14.52 0 22 0 C22.66 3.3 23.32 6.6 24 10 C24.33 11.32 24.66 12.64 25 14 C20.13167558 17.1793139 16.99268129 18.87166273 11 18 C5.70240529 15.45715454 2.18395717 11.43090235 0 6 C0 4.02 0 2.04 0 0 Z " fill="#F7F7F7" transform="translate(194,296)"/>
<path d="M0 0 C2.01435817 0.68327029 3.98630523 1.49022456 5.94140625 2.328125 C6.43640625 4.803125 6.43640625 4.803125 6.94140625 7.328125 C3.94140625 9.328125 3.94140625 9.328125 1.99755859 8.96801758 C1.31902832 8.75685303 0.64049805 8.54568848 -0.05859375 8.328125 C-2.86535663 8.15656935 -5.62580108 8.0518079 -8.43359375 8.015625 C-9.17609375 7.98662109 -9.91859375 7.95761719 -10.68359375 7.92773438 C-16.02005468 7.86644993 -18.70512038 9.02593483 -23.05859375 12.328125 C-25.87109375 12.640625 -25.87109375 12.640625 -28.05859375 12.328125 C-29.05859375 11.328125 -29.05859375 11.328125 -29.36328125 8.96875 C-29.05859375 6.328125 -29.05859375 6.328125 -27.37890625 4.5625 C-26.65445313 4.07265625 -25.93 3.5828125 -25.18359375 3.078125 C-24.10464844 2.32789063 -24.10464844 2.32789063 -23.00390625 1.5625 C-16.82336365 -2.35929008 -7.03166655 -1.54463173 0 0 Z " fill="#0E0E0E" transform="translate(184.05859375,184.671875)"/>
<path d="M0 0 C5.81266619 0.78549543 11.36877624 2.40682459 17 4 C15.58994006 9.12749069 13.52831149 13.9705079 10 18 C7.1875 18.5 7.1875 18.5 5 18 C-0.1294964 9.0647482 -0.1294964 9.0647482 -0.0625 4.375 C-0.05347656 3.55773437 -0.04445312 2.74046875 -0.03515625 1.8984375 C-0.02355469 1.27195312 -0.01195312 0.64546875 0 0 Z " fill="#F2F2F2" transform="translate(151,289)"/>
<path d="M0 0 C4.77933801 0.4217063 7.76223754 2.62427067 11 6 C12.67485414 8.47501 14.00227719 11.067532 15.3125 13.75 C17.26185902 18.1604477 17.26185902 18.1604477 20 22 C20.04092937 24.33297433 20.04241723 26.66705225 20 29 C16.72781908 26.27987415 15.21767692 22.67188088 13.375 18.9375 C10.17660514 12.65472149 6.63162002 7.81885427 1.6875 2.7578125 C0 1 0 1 0 0 Z " fill="#ECECEC" transform="translate(324,56)"/>
<path d="M0 0 C1.39018549 4.17055646 0.10141001 6.2149069 -1.5546875 10.1640625 C-4.11739006 15.19250049 -7.54469783 19.55848222 -11 24 C-12.00215097 25.33171739 -13.00298423 26.6644337 -14 28 C-14.66 27.67 -15.32 27.34 -16 27 C-5.94061758 5.94061758 -5.94061758 5.94061758 0 0 Z " fill="#EAEAEA" transform="translate(188,80)"/>
<path d="M0 0 C-1.1010141 1.91847937 -2.20594096 3.83471354 -3.3125 5.75 C-3.92738281 6.81734375 -4.54226563 7.8846875 -5.17578125 8.984375 C-6.67712631 11.46625592 -8.10148104 13.80899212 -10 16 C-10.66 16 -11.32 16 -12 16 C-11.0633394 5.25707643 -11.0633394 5.25707643 -6.5625 1.25 C-3.49196141 -1.16398714 -3.49196141 -1.16398714 0 0 Z " fill="#E6E6E6" transform="translate(290,60)"/>
<path d="M0 0 C5 5 10 10 15 15 C14.34 15.66 13.68 16.32 13 17 C12.47921875 16.26394531 11.9584375 15.52789062 11.421875 14.76953125 C8.71041084 11.66884078 5.77014943 9.72609203 2.25 7.6875 C1.64800781 7.32849609 1.04601562 6.96949219 0.42578125 6.59960938 C-1.04440804 5.7244967 -2.52151591 4.86102469 -4 4 C-2.68 2.68 -1.36 1.36 0 0 Z " fill="#DADADA" transform="translate(350,118)"/>
<path d="M0 0 C0.639375 0.804375 1.27875 1.60875 1.9375 2.4375 C3.40603502 4.2750504 3.40603502 4.2750504 5 6 C5.04092937 8.33297433 5.04241723 10.66705225 5 13 C2.01906878 10.4449161 0.47640245 7.61718599 -1 4 C-0.6875 1.625 -0.6875 1.625 0 0 Z " fill="#D4D4D4" transform="translate(339,72)"/>
<path d="M0 0 C0.33 0 0.66 0 1 0 C1 8.58 1 17.16 1 26 C-2 22 -2 22 -2 20 C-1.34 20 -0.68 20 0 20 C0 13.4 0 6.8 0 0 Z " fill="#A7A7A7" transform="translate(443,214)"/>
<path d="M0 0 C-1.35304209 2.70608417 -2.80966544 2.96183047 -5.5625 4.125 C-6.38878906 4.47820313 -7.21507812 4.83140625 -8.06640625 5.1953125 C-8.70449219 5.46085937 -9.34257812 5.72640625 -10 6 C-10.33 4.35 -10.66 2.7 -11 1 C-3.57142857 -1.42857143 -3.57142857 -1.42857143 0 0 Z " fill="#DBDBDB" transform="translate(204,54)"/>
<path d="M0 0 C-0.33 1.65 -0.66 3.3 -1 5 C-4 5 -7 5 -10 5 C-4.5 0 -4.5 0 0 0 Z " fill="#212120" transform="translate(298,41)"/>
<path d="M0 0 C0.99 0.33 1.98 0.66 3 1 C1.6302836 4.99500618 -0.25722422 7.80009492 -3 11 C-3.66 10.67 -4.32 10.34 -5 10 C-3.35 6.7 -1.7 3.4 0 0 Z " fill="#C4C4C4" transform="translate(177,97)"/>
<path d="M0 0 C4.92127034 -0.16682272 8.50343896 -0.24828052 13 2 C13 2.33 13 2.66 13 3 C8.17639811 3.19294408 4.50353262 2.75747614 0 1 C0 0.67 0 0.34 0 0 Z " fill="#C7C7C7" transform="translate(211,63)"/>
<path d="M0 0 C0.99 0.33 1.98 0.66 3 1 C1.68 2.65 0.36 4.3 -1 6 C-1.33 5.34 -1.66 4.68 -2 4 C-3.65 5.32 -5.3 6.64 -7 8 C-5.51218185 4.21282653 -3.38011591 2.22592999 0 0 Z " fill="#D1D1D1" transform="translate(287,59)"/>
<path d="M0 0 C1.25541557 3.76624671 0.37061958 5.37188934 -1 9 C-2.32 8.01 -3.64 7.02 -5 6 C-3.35 4.02 -1.7 2.04 0 0 Z " fill="#CFCFCF" transform="translate(188,80)"/>
<path d="M0 0 C0.66 0.33 1.32 0.66 2 1 C-0.66666667 3.66666667 -3.33333333 6.33333333 -6 9 C-5.69381595 5.32579134 -5.24228216 4.21864487 -2.4375 1.6875 C-1.633125 1.130625 -0.82875 0.57375 0 0 Z " fill="#DADADA" transform="translate(416,138)"/>
<path d="M0 0 C1.65 0 3.3 0 5 0 C5 0.66 5 1.32 5 2 C0.61538462 5 0.61538462 5 -2 5 C-1.34 3.35 -0.68 1.7 0 0 Z " fill="#C6C6C6" transform="translate(296,61)"/>
</svg>
